<?xml version="1.0" encoding="UTF-8"?>
<svg version="1.1" xmlns="http://www.w3.org/2000/svg" width="150" height="48">
<path d="M0 0 C2.97 0 5.94 0 9 0 C9.33 1.32 9.66 2.64 10 4 C20.56 4 31.12 4 42 4 C38 14 38 14 34 22 C27.07 22 20.14 22 13 22 C14.59959844 25.15110403 14.59959844 25.15110403 16.97119141 25.43237305 C17.75671387 25.45855713 18.54223633 25.48474121 19.3515625 25.51171875 C20.20234375 25.54716797 21.053125 25.58261719 21.9296875 25.61914062 C22.81914062 25.64169922 23.70859375 25.66425781 24.625 25.6875 C25.97078125 25.73874023 25.97078125 25.73874023 27.34375 25.79101562 C29.56205613 25.87361213 31.78100936 25.93847923 34 26 C34 29.3 34 32.6 34 36 C32.02 36 30.04 36 28 36 C28 34.02 28 32.04 28 30 C25.03 30 22.06 30 19 30 C19 31.98 19 33.96 19 36 C17.02 36 15.04 36 13 36 C13 34.02 13 32.04 13 30 C12.35160156 29.79246094 11.70320312 29.58492187 11.03515625 29.37109375 C10.02775391 28.69240234 10.02775391 28.69240234 9 28 C8.49609375 25.34765625 8.49609375 25.34765625 8.4375 22.0625 C8.15332525 15.68277676 6.93323846 10.0672075 5 4 C3.35 4 1.7 4 0 4 C0 2.68 0 1.36 0 0 Z " fill="#009587" transform="translate(3,6)"/>
<path d="M0 0 C0.99 0.66 1.98 1.32 3 2 C2.67 2.99 2.34 3.98 2 5 C1.0925 4.896875 0.185 4.79375 -0.75 4.6875 C-4.19728131 4.66048792 -4.19728131 4.66048792 -6.375 7.5 C-6.91125 8.325 -7.4475 9.15 -8 10 C-7.34 10 -6.68 10 -6 10 C-2.66666667 10 0.66666667 10 4 10 C4.33 9.01 4.66 8.02 5 7 C6.79133978 6.94608007 8.58313899 6.90724429 10.375 6.875 C11.37273437 6.85179687 12.37046875 6.82859375 13.3984375 6.8046875 C16 7 16 7 18 9 C18.99 8.34 19.98 7.68 21 7 C24.5625 6.6875 24.5625 6.6875 28 7 C30.06520632 10.09780948 30.29477024 10.9540481 30.3125 14.5 C30.32925781 15.2734375 30.34601563 16.046875 30.36328125 16.84375 C29.90954634 19.53688625 29.18522069 20.39750483 27 22 C23.5 22.4375 23.5 22.4375 20 22 C17.47677724 19.64499209 16.60041109 17.36230209 16 14 C13.03 13.505 13.03 13.505 10 13 C9.67 15.97 9.34 18.94 9 22 C7.68 22 6.36 22 5 22 C4.67 19.69 4.34 17.38 4 15 C3.38125 15.969375 2.7625 16.93875 2.125 17.9375 C0 21 0 21 -2 22 C-9.80715038 22.90367395 -9.80715038 22.90367395 -13.0625 20.4375 C-14.61821703 16.39263571 -14.74032211 12.9741923 -13.203125 8.875 C-9.9723658 2.11525768 -7.98485005 -0.71293304 0 0 Z M22.4375 12.5 C21.963125 12.995 21.48875 13.49 21 14 C21.66 15.32 22.32 16.64 23 18 C23.99 17.34 24.98 16.68 26 16 C25.67 14.35 25.34 12.7 25 11 C23.75923698 10.88457803 23.75923698 10.88457803 22.4375 12.5 Z M-9 15 C-8.67 15.99 -8.34 16.98 -8 18 C-6.02 17.34 -4.04 16.68 -2 16 C-4.49064888 15.31292445 -6.37886292 15 -9 15 Z " fill="#000000" transform="translate(60,12)"/>
<path d="M0 0 C2.60527105 -0.10792837 5.20608311 -0.18724878 7.8125 -0.25 C8.55048828 -0.28351562 9.28847656 -0.31703125 10.04882812 -0.3515625 C15.52054135 -0.45059803 15.52054135 -0.45059803 18.01171875 1.890625 C19 4 19 4 19 6 C19.66 6 20.32 6 21 6 C21.144375 5.38125 21.28875 4.7625 21.4375 4.125 C22 2 22 2 23 0 C24.32 0 25.64 0 27 0 C26.42460686 5.20285068 24.70581107 9.23956036 22.4375 13.875 C22.10814453 14.56335937 21.77878906 15.25171875 21.43945312 15.9609375 C20.63304639 17.6438733 19.81745506 19.32240293 19 21 C17.68 21 16.36 21 15 21 C15.10699219 20.34773438 15.21398437 19.69546875 15.32421875 19.0234375 C16.09625746 13.39502629 16.25609196 9.94925978 13 5 C12.67 5.66 12.34 6.32 12 7 C10.68 7 9.36 7 8 7 C8 6.34 8 5.68 8 5 C7.01 5.495 7.01 5.495 6 6 C5.53476937 7.89533342 5.53476937 7.89533342 5.375 10.0625 C5.189375 12.0115625 5.189375 12.0115625 5 14 C3.35 14.33 1.7 14.66 0 15 C0 10.05 0 5.1 0 0 Z " fill="#000000" transform="translate(120,19)"/>
<path d="M0 0 C2 2 2 2 2.125 4.625 C2.08375 5.40875 2.0425 6.1925 2 7 C-0.64738916 8.4606285 -1.89448334 9 -5 9 C-5 9.66 -5 10.32 -5 11 C-2.36 10.67 0.28 10.34 3 10 C2.125 13.875 2.125 13.875 1 15 C-0.9609375 15.203125 -0.9609375 15.203125 -3.375 15.25 C-4.16648437 15.27578125 -4.95796875 15.3015625 -5.7734375 15.328125 C-8 15 -8 15 -9.765625 13.73046875 C-11.87943261 10.76712454 -11.48577474 7.44900068 -11 4 C-8.87750758 -1.30623106 -5.02788161 -0.47884587 0 0 Z " fill="#000000" transform="translate(116,19)"/>
<path d="M0 0 C3.4375 0.375 3.4375 0.375 5.4375 2.375 C5.4375 3.365 5.4375 4.355 5.4375 5.375 C3.4575 5.375 1.4775 5.375 -0.5625 5.375 C-1.2225 6.695 -1.8825 8.015 -2.5625 9.375 C0.36574652 10.35108217 2.39363276 10.45726668 5.4375 10.375 C5.4375 11.695 5.4375 13.015 5.4375 14.375 C2.24019021 15.9736549 -1.09224187 15.87075116 -4.5625 15.375 C-6.625 13.8125 -6.625 13.8125 -7.5625 11.375 C-7.43544088 7.81734475 -6.92877254 5.16859051 -5.4375 1.9375 C-3.5625 0.375 -3.5625 0.375 0 0 Z " fill="#000000" transform="translate(98.5625,18.625)"/>
<path d="M0 0 C1.98 0 3.96 0 6 0 C6 1.98 6 3.96 6 6 C4.02 6 2.04 6 0 6 C0 4.02 0 2.04 0 0 Z " fill="#384C54" transform="translate(31,36)"/>
<path d="M0 0 C1.98 0 3.96 0 6 0 C6 1.98 6 3.96 6 6 C4.02 6 2.04 6 0 6 C0 4.02 0 2.04 0 0 Z " fill="#384C54" transform="translate(16,36)"/>
</svg>
