<?xml version="1.0" encoding="UTF-8"?>
<svg version="1.1" xmlns="http://www.w3.org/2000/svg" width="159" height="48">
<path d="M0 0 C2.97 0 5.94 0 9 0 C9.33 1.32 9.66 2.64 10 4 C20.56 4 31.12 4 42 4 C38 14 38 14 34 22 C27.07 22 20.14 22 13 22 C14.59959844 25.15110403 14.59959844 25.15110403 16.97119141 25.43237305 C17.75671387 25.45855713 18.54223633 25.48474121 19.3515625 25.51171875 C20.20234375 25.54716797 21.053125 25.58261719 21.9296875 25.61914062 C22.81914062 25.64169922 23.70859375 25.66425781 24.625 25.6875 C25.97078125 25.73874023 25.97078125 25.73874023 27.34375 25.79101562 C29.56205613 25.87361213 31.78100936 25.93847923 34 26 C34 29.3 34 32.6 34 36 C32.02 36 30.04 36 28 36 C28 34.02 28 32.04 28 30 C25.03 30 22.06 30 19 30 C19 31.98 19 33.96 19 36 C17.02 36 15.04 36 13 36 C13 34.02 13 32.04 13 30 C12.35160156 29.79246094 11.70320312 29.58492187 11.03515625 29.37109375 C10.02775391 28.69240234 10.02775391 28.69240234 9 28 C8.49609375 25.34765625 8.49609375 25.34765625 8.4375 22.0625 C8.15332525 15.68277676 6.93323846 10.0672075 5 4 C3.35 4 1.7 4 0 4 C0 2.68 0 1.36 0 0 Z " fill="#009587" transform="translate(3,6)"/>
<path d="M0 0 C1.09054688 0.02320313 2.18109375 0.04640625 3.3046875 0.0703125 C4.40039062 0.08835937 5.49609375 0.10640625 6.625 0.125 C7.46804687 0.14820313 8.31109375 0.17140625 9.1796875 0.1953125 C9.8396875 2.1753125 10.4996875 4.1553125 11.1796875 6.1953125 C9.8596875 6.5253125 8.5396875 6.8553125 7.1796875 7.1953125 C6.8496875 6.5353125 6.5196875 5.8753125 6.1796875 5.1953125 C4.25330738 4.44287695 4.25330738 4.44287695 2.1796875 4.1953125 C1.1896875 4.6903125 1.1896875 4.6903125 0.1796875 5.1953125 C-0.77098549 8.47945555 -0.92133447 9.89224658 0.1796875 13.1953125 C3.1496875 13.6903125 3.1496875 13.6903125 6.1796875 14.1953125 C6.1796875 13.2053125 6.1796875 12.2153125 6.1796875 11.1953125 C5.1896875 11.1953125 4.1996875 11.1953125 3.1796875 11.1953125 C3.1796875 10.2053125 3.1796875 9.2153125 3.1796875 8.1953125 C6.4796875 8.1953125 9.7796875 8.1953125 13.1796875 8.1953125 C13.1796875 7.5353125 13.1796875 6.8753125 13.1796875 6.1953125 C15.70444212 4.93293519 17.49169216 5.09674846 20.3046875 5.1328125 C21.21476562 5.14183594 22.12484375 5.15085937 23.0625 5.16015625 C24.11050781 5.17755859 24.11050781 5.17755859 25.1796875 5.1953125 C25.1796875 6.5153125 25.1796875 7.8353125 25.1796875 9.1953125 C23.8596875 9.5253125 22.5396875 9.8553125 21.1796875 10.1953125 C20.8496875 11.8453125 20.5196875 13.4953125 20.1796875 15.1953125 C20.8396875 15.1953125 21.4996875 15.1953125 22.1796875 15.1953125 C22.1796875 16.1853125 22.1796875 17.1753125 22.1796875 18.1953125 C19.2096875 18.1953125 16.2396875 18.1953125 13.1796875 18.1953125 C13.1796875 17.2053125 13.1796875 16.2153125 13.1796875 15.1953125 C13.8396875 15.1953125 14.4996875 15.1953125 15.1796875 15.1953125 C15.1796875 13.2153125 15.1796875 11.2353125 15.1796875 9.1953125 C14.5196875 9.1953125 13.8596875 9.1953125 13.1796875 9.1953125 C12.5196875 12.1653125 11.8596875 15.1353125 11.1796875 18.1953125 C8.93074796 18.30355023 6.68031175 18.38100895 4.4296875 18.4453125 C2.55023438 18.51492187 2.55023438 18.51492187 0.6328125 18.5859375 C-2.8203125 18.1953125 -2.8203125 18.1953125 -5.21484375 16.39453125 C-7.47001026 13.30533723 -7.75368253 10.99322064 -7.8203125 7.1953125 C-6.01190975 3.32016376 -4.4906622 0.31098769 0 0 Z " fill="#000000" transform="translate(54.8203125,14.8046875)"/>
<path d="M0 0 C1.16660156 0.00322266 2.33320313 0.00644531 3.53515625 0.00976562 C4.75847656 0.01814453 5.98179687 0.02652344 7.2421875 0.03515625 C8.47324219 0.03966797 9.70429688 0.04417969 10.97265625 0.04882812 C14.02088142 0.06064295 17.06901064 0.07711597 20.1171875 0.09765625 C19.2119915 4.1362655 17.48689383 7.61707777 15.6171875 11.28515625 C15.29621094 11.92646484 14.97523438 12.56777344 14.64453125 13.22851562 C12.25779584 17.95704791 12.25779584 17.95704791 11.1171875 19.09765625 C9.11760386 19.13846408 7.11673496 19.14019981 5.1171875 19.09765625 C4.7871875 17.77765625 4.4571875 16.45765625 4.1171875 15.09765625 C5.7671875 15.09765625 7.4171875 15.09765625 9.1171875 15.09765625 C7.7971875 11.46765625 6.4771875 7.83765625 5.1171875 4.09765625 C3.1371875 4.09765625 1.1571875 4.09765625 -0.8828125 4.09765625 C-0.8828125 6.07765625 -0.8828125 8.05765625 -0.8828125 10.09765625 C-0.2228125 10.09765625 0.4371875 10.09765625 1.1171875 10.09765625 C1.1171875 11.08765625 1.1171875 12.07765625 1.1171875 13.09765625 C-1.8528125 13.09765625 -4.8228125 13.09765625 -7.8828125 13.09765625 C-7.8828125 12.10765625 -7.8828125 11.11765625 -7.8828125 10.09765625 C-7.2228125 10.09765625 -6.5628125 10.09765625 -5.8828125 10.09765625 C-5.8828125 8.11765625 -5.8828125 6.13765625 -5.8828125 4.09765625 C-6.5428125 4.09765625 -7.2028125 4.09765625 -7.8828125 4.09765625 C-7.8828125 3.10765625 -7.8828125 2.11765625 -7.8828125 1.09765625 C-5.16879956 -0.25935022 -3.03434934 -0.01472985 0 0 Z M11.1171875 3.09765625 C11.7771875 4.41765625 12.4371875 5.73765625 13.1171875 7.09765625 C13.4471875 5.77765625 13.7771875 4.45765625 14.1171875 3.09765625 C13.1271875 3.09765625 12.1371875 3.09765625 11.1171875 3.09765625 Z " fill="#000000" transform="translate(135.8828125,19.90234375)"/>
<path d="M0 0 C2.125 1.5625 2.125 1.5625 3 4 C2.67272727 10.32727273 2.67272727 10.32727273 0 13 C-2.05859375 13.265625 -2.05859375 13.265625 -4.4375 13.25 C-5.61119141 13.25773437 -5.61119141 13.25773437 -6.80859375 13.265625 C-9 13 -9 13 -12 11 C-12.89562115 7.83087902 -13.28915213 5.82297146 -12.1875 2.6875 C-9.41616077 -1.25071891 -4.34252439 -0.5557161 0 0 Z M-5 3 C-5.99 3.495 -5.99 3.495 -7 4 C-7 5.65 -7 7.3 -7 9 C-6.01 9.33 -5.02 9.66 -4 10 C-3.34 8.68 -2.68 7.36 -2 6 C-2.99 5.01 -3.98 4.02 -5 3 Z " fill="#000000" transform="translate(93,20)"/>
<path d="M0 0 C2 1.5 2 1.5 3 3 C2.67 3.99 2.34 4.98 2 6 C-0.76276177 5.47731534 -3.3260876 4.89130413 -6 4 C-6 5.65 -6 7.3 -6 9 C-3.36 8.67 -0.72 8.34 2 8 C2 8.99 2 9.98 2 11 C0 13 0 13 -3.875 13.375 C-6.86552865 13.28239711 -7.92683828 13.0446108 -10.5625 11.4375 C-12 9 -12 9 -11.9375 5.375 C-10.21291484 -0.83350656 -5.58260763 -0.80249985 0 0 Z " fill="#000000" transform="translate(109,20)"/>
<path d="M0 0 C2 1.875 2 1.875 3 4 C3 4.66 3 5.32 3 6 C0.03 6 -2.94 6 -6 6 C-5.01 6.99 -4.02 7.98 -3 9 C-0.34533951 8.76956136 -0.34533951 8.76956136 2 8 C2 9.32 2 10.64 2 12 C-1.18985607 13.59492803 -4.52932887 13.37616681 -8 13 C-10 11.9375 -10 11.9375 -11 10 C-11.36248449 6.61681143 -11.58433618 4.13215135 -10 1.0625 C-6.77248977 -0.65211481 -3.5609021 -0.68992478 0 0 Z " fill="#000000" transform="translate(124,20)"/>
<path d="M0 0 C1.98 0 3.96 0 6 0 C6 1.98 6 3.96 6 6 C4.02 6 2.04 6 0 6 C0 4.02 0 2.04 0 0 Z " fill="#384C54" transform="translate(31,36)"/>
<path d="M0 0 C1.98 0 3.96 0 6 0 C6 1.98 6 3.96 6 6 C4.02 6 2.04 6 0 6 C0 4.02 0 2.04 0 0 Z " fill="#384C54" transform="translate(16,36)"/>
</svg>
