<?xml version="1.0" encoding="UTF-8"?>
<svg version="1.1" xmlns="http://www.w3.org/2000/svg" width="48" height="48">
<path d="M0 0 C2.97 0 5.94 0 9 0 C9.33 1.32 9.66 2.64 10 4 C20.56 4 31.12 4 42 4 C38 14 38 14 34 22 C27.07 22 20.14 22 13 22 C14.59959844 25.15110403 14.59959844 25.15110403 16.97119141 25.43237305 C17.75671387 25.45855713 18.54223633 25.48474121 19.3515625 25.51171875 C20.20234375 25.54716797 21.053125 25.58261719 21.9296875 25.61914062 C22.81914062 25.64169922 23.70859375 25.66425781 24.625 25.6875 C25.97078125 25.73874023 25.97078125 25.73874023 27.34375 25.79101562 C29.56205613 25.87361213 31.78100936 25.93847923 34 26 C34 29.3 34 32.6 34 36 C32.02 36 30.04 36 28 36 C28 34.02 28 32.04 28 30 C25.03 30 22.06 30 19 30 C19 31.98 19 33.96 19 36 C17.02 36 15.04 36 13 36 C13 34.02 13 32.04 13 30 C12.35160156 29.79246094 11.70320312 29.58492187 11.03515625 29.37109375 C10.02775391 28.69240234 10.02775391 28.69240234 9 28 C8.49609375 25.34765625 8.49609375 25.34765625 8.4375 22.0625 C8.15332525 15.68277676 6.93323846 10.0672075 5 4 C3.35 4 1.7 4 0 4 C0 2.68 0 1.36 0 0 Z " fill="#009587" transform="translate(3,6)"/>
<path d="M0 0 C1.98 0 3.96 0 6 0 C6 1.98 6 3.96 6 6 C4.02 6 2.04 6 0 6 C0 4.02 0 2.04 0 0 Z " fill="#384D54" transform="translate(31,36)"/>
<path d="M0 0 C1.98 0 3.96 0 6 0 C6 1.98 6 3.96 6 6 C4.02 6 2.04 6 0 6 C0 4.02 0 2.04 0 0 Z " fill="#384D54" transform="translate(16,36)"/>
</svg>
